<?xml version="1.0" standalone="no"?><!DOCTYPE svg PUBLIC "-//W3C//DTD SVG 1.1//EN" "http://www.w3.org/Graphics/SVG/1.1/DTD/svg11.dtd"><svg t="1712905981834" class="icon" viewBox="0 0 1024 1024" version="1.1" xmlns="http://www.w3.org/2000/svg" p-id="2843" xmlns:xlink="http://www.w3.org/1999/xlink" width="128" height="128"><path d="M384 896h-64v-70.4c0-15.2-10.4-28-24.8-31.2C159.2 768 64 644.8 64 496v-32h64v32c0 118.4 73.6 215.2 179.2 236 44.8 8.8 76.8 48 76.8 94.4v69.6z m320 0h-64v-70.4c0-45.6 32-85.6 76.8-94.4C822.4 711.2 896 614.4 896 496v-32h64v32c0 148.8-95.2 272-231.2 298.4-14.4 3.2-24.8 16-24.8 31.2v70.4z m-62.4-703.2c52.8 0 92.8 40 92.8 92.8 0 65.6-58.4 121.6-180.8 231.2-12.8 12-26.4 24-40.8 36.8-14.4-13.6-28.8-26.4-42.4-38.4C349.6 406.4 291.2 352 291.2 285.6c0-52.8 40-92.8 92.8-92.8 29.6 0 60.8 14.4 80 37.6l48.8 57.6 48.8-57.6c19.2-23.2 50.4-37.6 80-37.6m0-64C592 128.8 544 152 512.8 188.8c-31.2-36.8-79.2-60-128.8-60-88 0-156.8 68.8-156.8 156.8 0 108.8 96.8 183.2 244 316.8l41.6 37.6 41.6-37.6c147.2-133.6 244-208.8 244-316.8 0-88-68.8-156.8-156.8-156.8z" p-id="2844" fill="#707070"></path></svg>