<?xml version="1.0" standalone="no"?><!DOCTYPE svg PUBLIC "-//W3C//DTD SVG 1.1//EN" "http://www.w3.org/Graphics/SVG/1.1/DTD/svg11.dtd"><svg t="1712468378185" class="icon" viewBox="0 0 1024 1024" version="1.1" xmlns="http://www.w3.org/2000/svg" p-id="3578" xmlns:xlink="http://www.w3.org/1999/xlink" width="128" height="128"><path d="M888.5 626.1c-39 16.1-80.6 24.2-123.5 24.2-179.6 0-325.8-146.2-325.8-325.8 0-74.9 24.7-145.4 71.6-203.9L556.3 64l-72.5 4.6c-113 7.1-218 56.5-295.7 139.1-78.2 83-121.3 191.5-121.3 305.5 0 60.1 11.8 118.5 35 173.4 22.5 53.2 54.7 100.9 95.5 141.6 40.9 40.9 88.5 73 141.6 95.5 54.9 23.2 113.2 35 173.4 35 93 0 182.1-28.4 257.7-82.1 36.5-25.9 68.7-56.9 95.8-92.3 27.6-35.9 49.3-75.4 64.7-117.5l25.1-68.2-67.1 27.5zM397.9 192.8c-15.1 42.4-22.8 86.6-22.8 131.5 0 52.7 10.3 103.7 30.7 151.8 19.6 46.5 47.7 88.1 83.6 123.9 35.7 35.7 77.4 63.8 123.9 83.6 48.3 20.4 99.4 30.7 151.8 30.7 25.6 0 51.1-2.5 76-7.4-68.7 116-194.1 187.8-328.7 187.8-210.4 0-381.5-171.1-381.5-381.5 0-176.3 118.5-327.7 289-370.2-8.5 16-15.9 32.7-22 49.8z" p-id="3579" fill="#707070"></path><path d="M700.2 263l19.9 36.5L740 263c8.1-14.7 20.2-27 35-35l36.5-19.9-36.5-20c-14.7-8.1-27-20.2-35-35l-19.9-36.5-19.9 36.6c-8.1 14.7-20.2 27-35 35l-36.5 19.9 36.5 19.9c14.8 8.2 27 20.2 35 35z m145.9 93.7l12.5 22.9 12.5-22.9c5-9.2 12.6-16.9 21.9-21.9l22.9-12.5-22.9-12.5c-9.2-5-16.9-12.6-21.9-21.9L858.6 265l-12.5 22.8c-5 9.2-12.6 16.9-21.9 21.9l-22.8 12.5 22.8 12.5c9.2 5.2 16.8 12.7 21.9 22z m0 0" p-id="3580" fill="#707070"></path></svg>